<svg width="30" height="24" viewBox="0 0 30 24" fill="none" xmlns="http://www.w3.org/2000/svg">
<path d="M3.51034 0H23.7455C25.6505 0 27.1947 1.49993 27.1947 3.35019V16.5276C27.1947 18.3779 25.6505 19.8778 23.7455 19.8778H9.45883C8.78344 19.8778 8.12292 20.0704 7.5592 20.4317L2.36391 23.7614C1.6794 24.2001 0.758332 24.0168 0.30666 23.3519C0.146522 23.1162 0.0611572 22.8399 0.0611572 22.5575V3.35019C0.0611572 1.49993 1.60541 0 3.51034 0Z" fill="url(#paint0_linear_2_235)"/>
<g filter="url(#filter0_d_2_235)">
<path d="M20.2964 12.7307C19.1534 12.7307 18.2269 11.8308 18.2269 10.7206C18.2269 9.61047 19.1534 8.71051 20.2964 8.71051C21.4393 8.71051 22.3659 9.61047 22.3659 10.7206C22.3659 11.8308 21.4393 12.7307 20.2964 12.7307ZM6.95955 12.7307C5.8166 12.7307 4.89005 11.8308 4.89005 10.7206C4.89005 9.61047 5.8166 8.71051 6.95955 8.71051C8.10251 8.71051 9.02906 9.61047 9.02906 10.7206C9.02906 11.8308 8.10251 12.7307 6.95955 12.7307ZM13.628 12.7307C12.485 12.7307 11.5585 11.8308 11.5585 10.7206C11.5585 9.61047 12.485 8.71051 13.628 8.71051C14.7709 8.71051 15.6975 9.61047 15.6975 10.7206C15.6975 11.8308 14.7709 12.7307 13.628 12.7307Z" fill="black"/>
</g>
<path d="M20.2964 12.7307C19.1534 12.7307 18.2269 11.8308 18.2269 10.7206C18.2269 9.61047 19.1534 8.71051 20.2964 8.71051C21.4393 8.71051 22.3659 9.61047 22.3659 10.7206C22.3659 11.8308 21.4393 12.7307 20.2964 12.7307ZM6.95955 12.7307C5.8166 12.7307 4.89005 11.8308 4.89005 10.7206C4.89005 9.61047 5.8166 8.71051 6.95955 8.71051C8.10251 8.71051 9.02906 9.61047 9.02906 10.7206C9.02906 11.8308 8.10251 12.7307 6.95955 12.7307ZM13.628 12.7307C12.485 12.7307 11.5585 11.8308 11.5585 10.7206C11.5585 9.61047 12.485 8.71051 13.628 8.71051C14.7709 8.71051 15.6975 9.61047 15.6975 10.7206C15.6975 11.8308 14.7709 12.7307 13.628 12.7307Z" fill="url(#paint1_linear_2_235)"/>
<defs>
<filter id="filter0_d_2_235" x="3.89005" y="7.71051" width="25.4758" height="12.0202" filterUnits="userSpaceOnUse" color-interpolation-filters="sRGB">
<feFlood flood-opacity="0" result="BackgroundImageFix"/>
<feColorMatrix in="SourceAlpha" type="matrix" values="0 0 0 0 0 0 0 0 0 0 0 0 0 0 0 0 0 0 127 0" result="hardAlpha"/>
<feOffset dx="3" dy="3"/>
<feGaussianBlur stdDeviation="2"/>
<feColorMatrix type="matrix" values="0 0 0 0 0 0 0 0 0 0 0 0 0 0 0 0 0 0 0.19 0"/>
<feBlend mode="normal" in2="BackgroundImageFix" result="effect1_dropShadow_2_235"/>
<feBlend mode="normal" in="SourceGraphic" in2="effect1_dropShadow_2_235" result="shape"/>
</filter>
<linearGradient id="paint0_linear_2_235" x1="41.7578" y1="-7.5" x2="6.03078" y2="27.5793" gradientUnits="userSpaceOnUse">
<stop stop-color="white"/>
<stop offset="0.826391" stop-color="#B8B6BE"/>
</linearGradient>
<linearGradient id="paint1_linear_2_235" x1="12.7785" y1="7.24539" x2="12.8234" y2="13.961" gradientUnits="userSpaceOnUse">
<stop stop-color="white"/>
<stop offset="1" stop-color="white"/>
</linearGradient>
</defs>
</svg>
