<svg width="29" height="24" viewBox="0 0 29 24" fill="none" xmlns="http://www.w3.org/2000/svg">
<path d="M6.85977 2.21848H24.882C26.7741 2.21848 28.308 3.70835 28.308 5.54621V20.6319C28.308 22.4698 26.7741 23.9596 24.882 23.9596H6.85977C4.96761 23.9596 3.43372 22.4698 3.43372 20.6319V5.54621C3.43372 3.70835 4.96761 2.21848 6.85977 2.21848Z" fill="url(#paint0_linear_2_229)"/>
<path d="M1.69634 1.24382L1.97344 0.97467C2.61595 0.350599 3.48738 0 4.39602 0H6.74211C7.65076 0 8.52218 0.350599 9.16469 0.97467L9.44179 1.24382C10.0843 1.86789 10.9557 2.21849 11.8644 2.21849H22.1628C24.055 2.21849 25.5889 3.70836 25.5889 5.54622V20.6723C25.5889 22.5101 24.055 24 22.1628 24H4.11892C2.22677 24 0.692871 22.5101 0.692871 20.6723V3.59688C0.692871 2.71431 1.05383 1.86789 1.69634 1.24382Z" fill="url(#paint1_linear_2_229)"/>
<g filter="url(#filter0_d_2_229)">
<path d="M15.8817 11.758H10.4C9.45396 11.758 8.68701 12.5029 8.68701 13.4219C8.68701 14.3408 9.45396 15.0857 10.4 15.0857H15.8817C16.8278 15.0857 17.5947 14.3408 17.5947 13.4219C17.5947 12.5029 16.8278 11.758 15.8817 11.758Z" fill="black"/>
</g>
<path d="M15.8817 11.758H10.4C9.45396 11.758 8.68701 12.5029 8.68701 13.4219C8.68701 14.3408 9.45396 15.0857 10.4 15.0857H15.8817C16.8278 15.0857 17.5947 14.3408 17.5947 13.4219C17.5947 12.5029 16.8278 11.758 15.8817 11.758Z" fill="url(#paint2_linear_2_229)"/>
<defs>
<filter id="filter0_d_2_229" x="7.68701" y="10.758" width="16.9077" height="11.3277" filterUnits="userSpaceOnUse" color-interpolation-filters="sRGB">
<feFlood flood-opacity="0" result="BackgroundImageFix"/>
<feColorMatrix in="SourceAlpha" type="matrix" values="0 0 0 0 0 0 0 0 0 0 0 0 0 0 0 0 0 0 127 0" result="hardAlpha"/>
<feOffset dx="3" dy="3"/>
<feGaussianBlur stdDeviation="2"/>
<feColorMatrix type="matrix" values="0 0 0 0 0 0 0 0 0 0 0 0 0 0 0 0 0 0 0.194124 0"/>
<feBlend mode="normal" in2="BackgroundImageFix" result="effect1_dropShadow_2_229"/>
<feBlend mode="normal" in="SourceGraphic" in2="effect1_dropShadow_2_229" result="shape"/>
</filter>
<linearGradient id="paint0_linear_2_229" x1="11.9124" y1="2.21848" x2="16.1899" y2="24.2047" gradientUnits="userSpaceOnUse">
<stop stop-color="#EFF0F7"/>
<stop offset="1" stop-color="#DAD0E4"/>
</linearGradient>
<linearGradient id="paint1_linear_2_229" x1="37.7565" y1="-4" x2="8.71997" y2="19.034" gradientUnits="userSpaceOnUse">
<stop offset="0.0359465" stop-color="#BE91F5"/>
<stop offset="1" stop-color="#6A49F6"/>
</linearGradient>
<linearGradient id="paint2_linear_2_229" x1="10.5218" y1="8.26411" x2="11.0642" y2="20.4682" gradientUnits="userSpaceOnUse">
<stop stop-color="white"/>
<stop offset="1" stop-color="white"/>
</linearGradient>
</defs>
</svg>
